<!DOCTYPE svg PUBLIC "-//W3C//DTD SVG 20010904//EN" "http://www.w3.org/TR/2001/REC-SVG-20010904/DTD/svg10.dtd">
<svg version="1.0" xmlns="http://www.w3.org/2000/svg" width="1191px" height="1017px" viewBox="0 0 11910 10170" preserveAspectRatio="xMidYMid meet">
<g id="layer101" fill="#e94a08" stroke="none">
 <path d="M3095 10163 c-452 -37 -833 -131 -1500 -368 -408 -145 -777 -313 -980 -446 -144 -95 -286 -236 -338 -335 -112 -217 -87 -456 88 -822 82 -169 169 -324 428 -757 291 -486 355 -597 595 -1027 l211 -377 -113 -193 c-1000 -1707 -1268 -2188 -1385 -2487 -80 -204 -95 -273 -96 -436 0 -131 2 -144 27 -197 86 -183 278 -274 653 -308 100 -10 402 -10 1300 -1 644 6 1271 13 1395 17 l225 5 109 -198 c452 -818 903 -1452 1278 -1793 242 -220 432 -337 665 -406 108 -32 310 -44 430 -24 607 98 1263 806 2038 2198 65 117 121 214 124 217 4 2 587 -3 1296 -12 710 -8 1385 -12 1500 -9 392 10 601 64 736 193 99 94 135 216 117 395 -27 276 -192 625 -731 1555 -523 900 -700 1204 -788 1356 -55 92 -99 169 -99 171 0 6 405 729 483 861 38 66 172 291 297 500 125 209 262 443 305 520 139 248 229 459 259 607 20 96 20 255 1 328 -95 357 -561 640 -1660 1005 -304 102 -496 155 -720 200 -285 57 -403 69 -670 69 -207 0 -258 -3 -370 -23 -320 -56 -557 -172 -747 -365 -540 -548 -453 -1671 215 -2781 231 -386 491 -712 844 -1061 196 -194 226 -236 239 -340 19 -154 -87 -344 -238 -424 -49 -26 -77 -34 -134 -38 -107 -7 -145 15 -405 230 -771 638 -1121 830 -1634 893 -175 21 -451 28 -648 16 -665 -43 -1002 -217 -1936 -1003 -126 -106 -174 -131 -261 -136 -206 -12 -404 200 -402 429 0 55 6 82 30 133 26 55 60 94 234 268 285 283 489 529 695 838 357 535 591 1110 670 1645 25 177 23 501 -5 655 -115 629 -532 993 -1216 1059 -101 10 -315 12 -411 4z m3094 -4643 c399 -95 718 -379 855 -758 87 -243 89 -539 5 -778 -108 -307 -333 -559 -621 -694 -177 -83 -347 -116 -557 -107 -840 33 -1379 927 -1016 1684 121 254 317 449 568 568 98 47 234 89 332 105 103 16 328 5 434 -20z"/>
 </g>
<g id="layer102" fill="#73ba2a" stroke="none">
 <path d="M3095 10163 c-452 -37 -833 -131 -1500 -368 -408 -145 -777 -313 -980 -446 -144 -95 -286 -236 -338 -335 -112 -217 -87 -456 88 -822 82 -169 169 -324 428 -757 291 -486 355 -597 595 -1027 l211 -377 -113 -193 c-1000 -1707 -1268 -2188 -1385 -2487 -80 -204 -95 -273 -96 -436 0 -131 2 -144 27 -197 86 -183 278 -274 653 -308 100 -10 402 -10 1300 -1 644 6 1271 13 1395 17 l225 5 109 -198 c452 -818 903 -1452 1278 -1793 242 -220 432 -337 665 -406 108 -32 310 -44 430 -24 604 97 1251 792 2025 2175 74 132 134 244 135 248 1 11 1990 3583 2015 3618 10 15 111 193 224 395 235 421 264 470 574 989 125 209 262 443 305 520 139 248 229 459 259 607 20 96 20 255 1 328 -95 357 -561 640 -1660 1005 -304 102 -496 155 -720 200 -285 57 -403 69 -670 69 -207 0 -258 -3 -370 -23 -320 -56 -557 -172 -747 -365 -540 -548 -453 -1671 215 -2781 231 -386 491 -712 844 -1061 196 -194 226 -236 239 -340 19 -154 -87 -344 -238 -424 -49 -26 -77 -34 -134 -38 -107 -7 -145 15 -405 230 -771 638 -1121 830 -1634 893 -175 21 -451 28 -648 16 -665 -43 -1002 -217 -1936 -1003 -126 -106 -174 -131 -261 -136 -206 -12 -404 200 -402 429 0 55 6 82 30 133 26 55 60 94 234 268 285 283 489 529 695 838 357 535 591 1110 670 1645 25 177 23 501 -5 655 -115 629 -532 993 -1216 1059 -101 10 -315 12 -411 4z m3094 -4643 c399 -95 718 -379 855 -758 87 -243 89 -539 5 -778 -108 -307 -333 -559 -621 -694 -177 -83 -347 -116 -557 -107 -840 33 -1379 927 -1016 1684 121 254 317 449 568 568 98 47 234 89 332 105 103 16 328 5 434 -20z"/>
 </g>
<g id="layer103" fill="#f49d00" stroke="none">
 <path d="M3090 10163 c-352 -25 -708 -106 -1210 -273 -817 -271 -1232 -472 -1470 -710 -74 -74 -104 -112 -133 -170 -102 -207 -91 -401 44 -719 71 -169 185 -374 480 -867 261 -437 449 -764 653 -1134 60 -107 123 -217 141 -245 36 -55 1987 -3555 2007 -3601 26 -61 296 -537 401 -709 620 -1014 1143 -1552 1652 -1701 111 -32 312 -44 432 -24 542 87 1117 657 1793 1775 102 169 309 535 367 650 47 94 1981 3563 2023 3630 21 33 97 168 170 300 201 363 310 551 575 995 295 493 348 586 428 743 140 271 187 416 194 598 5 112 3 134 -18 204 -103 348 -569 628 -1649 989 -428 143 -715 212 -1075 258 -58 7 -199 12 -335 12 -193 -1 -255 -5 -350 -22 -390 -71 -656 -223 -852 -486 -304 -407 -334 -1083 -83 -1816 240 -699 695 -1386 1302 -1964 124 -119 166 -185 178 -280 20 -158 -83 -343 -237 -427 -58 -31 -70 -34 -148 -34 -109 0 -139 15 -296 147 -829 699 -1193 904 -1724 972 -175 22 -443 29 -648 17 -665 -41 -997 -212 -1942 -1004 -137 -116 -192 -141 -290 -135 -216 13 -405 256 -369 476 15 99 41 134 254 346 300 299 494 535 710 861 527 796 768 1633 656 2285 -107 621 -533 993 -1215 1059 -101 10 -308 12 -416 4z m3026 -4628 c116 -21 180 -40 284 -84 354 -152 629 -499 695 -879 19 -108 19 -305 0 -414 -87 -499 -497 -894 -1005 -969 -201 -29 -450 5 -639 89 -749 330 -948 1299 -390 1896 175 187 445 329 694 365 98 14 266 12 361 -4z"/>
 </g>

</svg>