<!DOCTYPE svg PUBLIC "-//W3C//DTD SVG 20010904//EN" "http://www.w3.org/TR/2001/REC-SVG-20010904/DTD/svg10.dtd">
<svg version="1.0" xmlns="http://www.w3.org/2000/svg" width="757px" height="342px" viewBox="0 0 7570 3420" preserveAspectRatio="xMidYMid meet">
<g id="layer101" fill="#898989" stroke="none">
 <path d="M4835 3372 c-17 -11 -49 -41 -72 -68 l-41 -49 -36 18 c-88 41 -172 30 -241 -34 -23 -21 -45 -39 -47 -39 -3 0 -17 17 -31 39 -51 77 -179 108 -263 64 -21 -11 -61 -48 -88 -84 -27 -35 -54 -63 -60 -62 -6 1 -38 7 -70 13 -73 14 -166 0 -241 -36 l-51 -25 -66 45 c-37 24 -80 47 -96 50 -20 5 -32 16 -40 40 -31 84 -101 130 -197 130 -76 -1 -130 -28 -180 -89 l-37 -44 -59 6 c-81 8 -136 -14 -187 -75 -22 -26 -47 -62 -56 -79 -9 -18 -18 -33 -21 -33 -2 0 -33 16 -69 35 -78 43 -145 54 -199 31 l-38 -15 -84 48 c-263 151 -557 153 -777 7 -108 -71 -235 -227 -277 -341 -32 -85 -44 -207 -31 -305 11 -82 58 -228 81 -257 7 -8 12 -36 10 -64 -3 -62 24 -124 71 -165 37 -33 211 -96 301 -109 26 -4 47 -11 47 -15 0 -13 -42 -20 -61 -9 -28 15 -205 11 -273 -7 -81 -21 -162 -65 -230 -126 l-56 -50 -58 54 c-131 120 -197 138 -515 138 -224 0 -242 -1 -273 -20 -18 -12 -36 -30 -39 -40 -4 -11 -11 -20 -16 -20 -6 0 -19 -19 -29 -42 -18 -41 -20 -71 -20 -533 0 -295 4 -516 11 -555 21 -132 111 -267 226 -340 75 -48 164 -72 268 -72 152 -1 264 49 371 164 107 116 156 213 170 339 6 50 9 59 23 53 121 -52 147 -58 256 -58 136 -1 210 22 314 95 l71 50 0 -221 c0 -306 2 -310 210 -310 137 0 158 7 206 66 51 64 54 76 54 198 l0 116 63 0 c116 0 256 49 335 115 33 27 52 26 52 -3 0 -29 38 -80 71 -98 45 -23 292 -15 397 13 59 16 74 17 83 7 6 -8 26 -19 45 -26 19 -6 34 -15 34 -18 0 -4 -16 -25 -35 -48 -48 -55 -65 -100 -65 -169 1 -75 25 -128 84 -180 64 -57 129 -78 239 -78 l87 0 28 -47 c77 -134 256 -174 418 -93 l70 36 48 -27 c36 -20 67 -28 120 -32 101 -6 169 21 233 92 44 48 53 54 101 59 73 8 144 50 190 111 54 71 71 107 74 156 2 34 12 51 50 93 27 29 56 71 65 93 l17 41 81 6 c135 10 237 54 339 148 l56 51 0 -51 c0 -28 8 -66 17 -85 16 -34 15 -37 -1 -55 -42 -46 -57 -146 -34 -225 16 -55 99 -138 154 -154 117 -34 209 -1 292 104 68 86 90 152 73 226 l-9 37 92 5 c50 3 102 6 116 7 14 1 57 -1 96 -6 l72 -8 -15 -44 c-24 -69 -14 -160 23 -219 60 -98 188 -139 299 -97 49 19 51 19 80 1 24 -15 52 -18 147 -18 64 0 128 4 141 9 14 5 46 35 71 66 l46 57 0 124 0 124 41 0 c50 0 106 25 121 54 6 11 22 34 37 49 25 27 26 35 29 148 4 134 -4 165 -50 204 -26 22 -39 25 -104 25 l-74 0 0 58 c0 87 6 101 49 108 20 3 48 10 63 16 31 11 92 82 108 123 16 41 13 230 -4 270 -30 71 -111 91 -244 60 -82 -19 -147 -53 -221 -115 l-60 -50 -6 48 c-9 58 -26 87 -68 112 -30 19 -53 20 -404 20 -207 0 -373 4 -373 9 0 5 7 14 16 22 8 7 28 36 42 63 25 47 27 61 27 166 0 111 -1 117 -35 185 -19 39 -36 73 -38 78 -2 4 5 7 15 7 23 0 112 43 138 67 40 36 113 129 133 169 100 197 -3 469 -215 570 -158 74 -328 51 -468 -65 l-49 -41 -31 29 c-117 111 -298 168 -451 142 -68 -12 -68 -12 -87 14 -45 62 -176 87 -242 47z"/>
 </g>
<g id="layer102" fill="#f39c22" stroke="none">
 <path d="M4818 3336 c-39 -14 -105 -76 -119 -113 l-8 -23 -36 21 c-19 12 -61 23 -93 26 -70 6 -135 -18 -178 -66 l-27 -31 -18 29 c-56 92 -216 130 -293 70 -33 -26 -81 -96 -90 -131 -6 -27 -6 -27 -42 -12 -88 37 -246 24 -331 -26 l-33 -19 -28 24 c-31 26 -123 75 -140 75 -6 0 -20 19 -30 43 -45 101 -159 150 -273 115 -41 -12 -124 -85 -134 -118 -5 -16 -10 -18 -25 -10 -24 13 -121 13 -155 0 -34 -13 -56 -39 -102 -121 l-36 -65 -70 40 c-77 45 -156 58 -221 36 -33 -10 -40 -9 -93 22 -193 113 -411 152 -600 107 -91 -22 -213 -88 -274 -149 -152 -151 -217 -337 -189 -540 11 -82 58 -228 81 -257 7 -8 12 -36 10 -64 -3 -62 24 -124 71 -165 37 -33 211 -96 301 -109 26 -4 47 -11 47 -16 0 -5 15 -9 33 -10 29 0 28 -2 -23 -21 -47 -18 -75 -20 -197 -18 -108 1 -157 -3 -200 -15 -86 -25 -164 -68 -226 -125 l-56 -51 -17 26 c-23 35 -127 108 -194 136 -52 22 -72 24 -337 29 -155 3 -280 3 -277 1 2 -2 -7 -13 -21 -25 -54 -47 -55 -54 -55 -583 0 -292 4 -514 11 -553 21 -132 111 -267 226 -340 75 -48 164 -72 268 -72 154 -1 265 50 377 171 96 104 133 204 126 341 -3 72 -1 79 20 58 6 -6 20 -13 29 -14 10 -1 50 -15 88 -30 61 -24 84 -28 180 -28 136 -1 210 22 314 95 l71 50 0 -221 c0 -306 2 -310 210 -310 134 0 164 9 199 59 19 26 21 43 21 174 l0 145 82 1 c140 3 273 46 356 116 33 27 52 26 52 -3 0 -29 38 -80 71 -98 45 -23 292 -15 397 13 59 16 74 17 83 7 6 -8 26 -19 45 -26 19 -6 34 -15 34 -18 0 -4 -16 -25 -35 -48 -48 -55 -65 -100 -65 -169 1 -75 25 -128 84 -180 64 -57 129 -78 239 -78 l87 0 28 -47 c77 -134 256 -174 418 -93 l70 36 48 -27 c36 -20 67 -28 120 -32 101 -6 169 21 233 92 44 48 53 54 101 59 73 8 145 50 188 109 29 39 37 60 41 109 5 55 10 65 47 103 59 60 81 89 82 109 3 68 -1 64 69 66 168 5 287 53 403 164 l42 41 0 -52 c0 -28 8 -67 17 -86 16 -34 15 -37 -1 -55 -42 -46 -57 -146 -34 -225 18 -59 99 -138 161 -155 56 -16 141 -10 185 13 38 20 99 81 119 120 23 45 28 127 10 180 -12 34 -13 46 -4 47 88 8 228 20 247 21 14 0 57 -2 96 -7 l72 -8 -15 -44 c-24 -69 -14 -160 23 -219 60 -98 188 -139 299 -97 49 19 51 19 80 1 26 -16 48 -18 162 -16 124 3 133 4 158 28 49 45 55 69 55 208 0 145 -2 142 78 142 49 0 98 27 122 67 17 29 20 51 20 156 0 105 -3 127 -20 155 -26 42 -73 62 -145 62 l-55 0 0 70 c0 57 4 74 20 90 11 11 20 24 20 30 0 5 17 12 38 15 61 11 92 26 118 61 25 32 25 37 22 169 l-3 137 -37 34 c-35 32 -42 34 -106 34 -123 0 -233 -41 -335 -124 l-55 -44 -6 40 c-4 22 -13 53 -21 69 -30 58 -38 59 -445 59 -205 0 -370 4 -370 9 0 5 7 14 15 21 8 7 15 18 15 25 0 6 9 20 20 30 10 9 19 20 18 24 -1 3 4 33 11 66 23 105 -5 242 -70 334 -33 47 -32 54 6 54 14 0 25 3 25 8 0 5 8 9 18 9 22 0 111 44 137 67 24 22 110 124 110 132 1 3 7 30 14 60 9 34 12 82 8 134 -10 153 -106 291 -253 364 -62 30 -86 36 -161 40 -66 4 -104 1 -147 -11 -61 -18 -166 -72 -166 -86 0 -4 -11 -15 -25 -24 -25 -17 -27 -16 -70 22 -57 50 -146 97 -220 117 -67 17 -183 20 -234 5 -32 -9 -37 -7 -77 29 -62 58 -132 73 -206 47z"/>
 </g>
<g id="layer103" fill="#fffefd" stroke="none">
 <path d="M4864 3200 c-31 -12 -32 -24 -22 -140 5 -58 10 -173 11 -257 2 -149 2 -152 -23 -178 -22 -24 -31 -26 -77 -23 -62 5 -133 47 -133 78 0 17 4 19 28 13 77 -20 132 -2 132 44 0 19 -9 28 -42 43 -24 10 -60 22 -80 25 -33 6 -38 11 -38 35 0 27 1 27 45 22 35 -3 50 0 65 13 36 32 16 95 -29 95 -10 0 -32 5 -48 11 -26 8 -31 17 -36 50 -6 49 -20 66 -58 74 -77 17 -107 -73 -96 -285 7 -122 38 -292 58 -316 14 -17 70 -19 87 -2 7 7 12 20 12 30 0 22 -7 23 65 -7 104 -43 200 -28 247 38 48 67 62 266 34 457 -25 161 -47 200 -102 180z"/>
 <path d="M3108 3175 c-30 -17 -40 -44 -64 -180 -12 -67 -15 -125 -11 -227 4 -86 2 -138 -4 -138 -5 0 -30 19 -55 42 -84 77 -110 164 -79 263 22 68 13 105 -28 119 -36 13 -56 1 -80 -46 -46 -94 -42 -227 11 -337 36 -74 124 -161 198 -195 32 -15 65 -31 73 -35 8 -4 22 -33 30 -64 19 -67 42 -97 75 -97 55 0 79 46 62 118 -7 28 -5 32 13 32 38 0 127 40 169 76 50 43 86 102 103 168 l12 48 13 -38 c7 -22 31 -56 52 -76 68 -63 156 -64 217 -2 40 40 45 74 14 105 -15 15 -28 19 -47 14 -57 -13 -67 -11 -70 16 -5 41 32 79 77 79 71 0 186 -110 246 -235 42 -86 43 -99 13 -89 -45 14 -123 34 -136 34 -24 0 -62 -48 -62 -78 0 -50 27 -70 140 -106 123 -39 104 -4 150 -285 35 -217 45 -237 101 -193 22 19 22 20 11 133 -7 63 -15 152 -19 198 -6 80 -5 84 13 77 10 -4 55 -10 99 -13 95 -7 109 3 103 67 -3 37 -2 41 17 36 11 -3 57 -14 103 -23 80 -17 82 -18 82 -46 l0 -29 -59 7 c-47 5 -59 4 -64 -8 -7 -20 9 -33 53 -42 64 -12 70 -16 70 -41 0 -28 -2 -28 -95 -9 -61 12 -73 11 -93 -1 -18 -12 -22 -23 -20 -47 4 -38 22 -49 141 -79 l85 -22 12 -71 c14 -78 23 -95 52 -95 19 0 20 -8 18 -282 -1 -156 -1 -367 -1 -470 l1 -188 80 0 80 0 0 36 c0 20 3 34 8 32 122 -63 124 -63 232 -63 97 0 110 2 172 32 84 40 151 107 192 193 29 60 31 73 31 170 0 98 -2 110 -32 170 -41 83 -110 152 -193 193 -60 30 -72 32 -170 32 -108 0 -109 0 -232 -63 -5 -2 -8 82 -8 186 l0 190 30 7 c20 4 32 14 36 30 15 62 -17 85 -123 85 -71 0 -73 1 -73 25 0 23 4 25 40 25 28 0 43 5 47 16 8 22 -22 44 -59 44 -23 0 -28 4 -28 23 0 22 5 23 115 34 141 15 169 26 173 71 6 62 5 62 -262 63 -132 0 -263 4 -291 9 -60 10 -95 -7 -95 -45 l0 -24 -62 20 c-35 12 -69 22 -76 25 -8 2 4 23 33 59 50 62 85 125 85 153 0 24 -31 52 -58 52 -22 0 -62 -36 -90 -82 -9 -16 -20 -28 -24 -28 -4 0 -8 114 -8 254 0 272 -1 275 -51 291 -28 9 -65 -18 -72 -53 -3 -17 -9 -72 -12 -124 -3 -51 -8 -112 -11 -136 l-5 -42 -44 59 c-84 110 -194 164 -296 142 -90 -20 -154 -74 -183 -159 l-13 -37 -12 42 c-28 101 -141 208 -199 187 -15 -5 -33 -23 -41 -39 -14 -28 -12 -34 26 -105 57 -105 61 -169 14 -223 -25 -28 -98 -64 -108 -53 -7 7 -6 205 1 381 7 153 6 183 -6 193 -24 20 -71 23 -100 7z m2168 -1651 c161 -99 149 -341 -21 -420 -67 -32 -143 -32 -210 0 -60 28 -87 56 -114 116 -53 118 -4 256 111 315 74 37 164 33 234 -11z"/>
 <path d="M5112 3115 c-66 -20 -92 -41 -92 -74 0 -48 23 -59 145 -63 96 -4 117 -8 164 -32 107 -55 184 -167 203 -295 15 -96 22 -111 57 -111 47 0 55 20 47 114 -14 194 -96 336 -240 421 -88 52 -198 67 -284 40z"/>
 <path d="M5849 3087 c-118 -44 -208 -152 -209 -250 0 -30 5 -40 25 -49 31 -14 38 -8 74 63 51 103 154 144 246 99 113 -55 142 -212 43 -235 -35 -9 -65 21 -73 72 -12 76 -15 83 -39 89 -38 9 -67 -5 -82 -42 -61 -147 85 -302 246 -260 97 25 154 107 154 221 0 118 -63 218 -170 271 -65 32 -161 41 -215 21z"/>
 <path d="M1728 3080 c-151 -27 -272 -104 -349 -222 -96 -149 -90 -377 16 -553 28 -46 33 -61 24 -76 -5 -11 -9 -34 -7 -52 2 -27 10 -36 48 -54 73 -36 228 -74 330 -80 187 -11 303 40 378 167 24 40 27 55 27 140 0 80 -4 103 -25 145 -73 148 -235 224 -455 211 -55 -3 -133 -14 -172 -24 -84 -23 -89 -17 -44 44 44 60 81 90 145 120 114 52 242 42 427 -31 109 -44 150 -45 190 -6 16 16 29 40 29 52 0 50 -156 153 -300 197 -78 24 -197 34 -262 22z m171 -546 c15 -9 43 -39 61 -66 28 -40 35 -61 38 -112 5 -71 -7 -102 -44 -116 -73 -28 -174 96 -174 212 0 86 52 122 119 82z m-263 -26 c104 -92 113 -288 14 -288 -102 0 -197 224 -125 295 33 34 67 31 111 -7z"/>
 <path d="M2361 2924 c-12 -15 -21 -35 -21 -45 0 -10 67 -91 149 -179 82 -88 170 -187 195 -221 48 -64 121 -187 115 -194 -2 -2 -65 7 -139 21 -164 29 -182 29 -203 6 -26 -28 -22 -88 6 -107 33 -21 182 -71 312 -104 128 -32 124 -28 153 -171 16 -79 23 -97 42 -107 26 -13 59 -4 74 20 7 11 6 46 -2 109 -6 50 -10 93 -9 94 1 1 36 -2 77 -6 191 -23 516 -4 552 32 30 30 24 93 -11 129 -26 26 -36 29 -93 29 -73 1 -386 16 -505 26 l-81 7 -22 61 c-35 97 -118 252 -180 335 -70 95 -184 200 -270 252 -78 46 -111 49 -139 13z"/>
 <path d="M5275 2779 c-74 -37 -95 -61 -95 -106 0 -44 37 -83 80 -83 53 0 180 106 180 150 0 74 -65 90 -165 39z"/>
 <path d="M5283 2541 c-47 -12 -63 -29 -63 -67 0 -45 24 -59 130 -74 284 -42 510 -175 510 -300 0 -35 -60 -88 -125 -111 -119 -42 -300 -12 -368 59 -42 44 -44 74 -7 106 42 35 83 34 175 -5 82 -34 111 -32 121 7 10 39 -2 53 -78 89 -142 68 -245 65 -326 -9 -37 -33 -52 -70 -52 -128 1 -125 89 -213 248 -247 77 -16 235 -14 311 5 89 22 129 44 178 97 56 61 71 130 48 218 -20 81 -42 114 -120 187 -75 70 -175 123 -289 152 -88 22 -245 33 -293 21z"/>
 <path d="M3968 2279 c-28 -16 -66 -89 -73 -141 -6 -39 -4 -49 14 -67 21 -21 56 -27 78 -13 6 4 30 40 52 80 31 53 40 79 35 97 -11 46 -66 68 -106 44z"/>
 <path d="M4262 2228 c-18 -18 -14 -36 31 -128 36 -74 46 -85 70 -88 58 -7 73 38 36 111 -50 99 -103 139 -137 105z"/>
 <path d="M3981 1721 c-11 -7 -7 -14 20 -30 36 -23 121 -51 151 -51 10 0 32 -13 49 -28 24 -21 32 -39 36 -73 11 -94 -51 -160 -249 -266 -185 -99 -282 -187 -308 -282 -62 -223 161 -391 525 -395 184 -2 285 27 369 104 67 62 89 123 84 233 -4 82 -7 92 -31 112 -29 26 -116 48 -151 39 -23 -5 -24 -9 -23 -97 1 -74 -3 -101 -20 -138 -30 -66 -85 -123 -146 -150 -73 -33 -199 -33 -274 0 -102 45 -155 135 -132 226 26 104 100 174 284 269 61 31 133 74 160 94 177 134 161 283 -42 386 -92 46 -261 72 -302 47z"/>
 <path d="M262 1203 l3 -518 28 -56 c34 -70 109 -142 185 -177 49 -23 70 -27 147 -27 77 0 98 4 147 27 79 37 142 98 181 177 29 59 32 74 32 156 0 76 -4 99 -27 146 -14 31 -42 75 -63 98 l-37 41 30 35 c154 175 126 426 -62 554 -80 54 -119 61 -353 61 l-214 0 3 -517z m439 343 c67 -28 129 -117 129 -183 0 -116 -99 -213 -215 -213 -69 1 -160 70 -184 139 -6 19 -11 87 -11 152 l0 119 124 0 c84 0 134 -5 157 -14z m-95 -554 c88 -10 125 -26 166 -69 99 -104 62 -271 -74 -327 -99 -42 -221 11 -264 113 -10 24 -14 77 -14 187 l0 153 53 -24 c30 -14 86 -28 133 -33z"/>
 <path d="M1328 1704 c-71 -22 -166 -91 -208 -153 -152 -221 -55 -524 197 -612 83 -29 215 -23 295 13 67 31 149 104 185 165 45 78 53 130 53 376 l0 227 -79 0 -80 0 -3 -238 -3 -239 -30 -49 c-44 -70 -108 -107 -195 -112 -56 -3 -74 0 -117 21 -90 46 -133 116 -133 217 0 143 101 239 253 240 l67 0 0 80 0 80 -77 -1 c-43 0 -99 -7 -125 -15z"/>
 <path d="M1960 1125 l0 -595 80 0 80 0 0 231 c0 127 3 229 8 227 123 -63 123 -63 237 -63 98 0 116 3 165 26 281 133 319 511 70 694 -121 89 -313 99 -436 24 -42 -25 -44 -25 -44 16 l0 35 -80 0 -80 0 0 -595z m500 414 c95 -43 143 -116 144 -219 1 -137 -101 -240 -239 -240 -138 0 -238 101 -238 240 0 79 25 134 82 181 72 61 168 76 251 38z"/>
 <path d="M3110 1704 c-59 -21 -131 -74 -163 -121 -56 -82 -60 -106 -65 -395 l-4 -268 81 0 81 0 0 228 c1 125 5 247 9 271 30 155 241 193 318 56 22 -39 23 -49 23 -297 l0 -258 81 0 80 0 -3 283 c-3 271 -4 284 -26 329 -31 63 -90 121 -154 154 -68 35 -188 43 -258 18z"/>
 <path d="M5720 1320 l0 -400 80 0 80 0 0 400 0 400 -80 0 -80 0 0 -400z"/>
 <path d="M6040 1320 l0 -400 80 0 80 0 0 31 c0 21 4 29 13 26 95 -42 138 -57 170 -57 l37 0 0 80 c0 78 -1 80 -25 80 -60 0 -135 54 -170 123 -25 50 -25 54 -25 284 l0 233 -80 0 -80 0 0 -400z"/>
 <path d="M6580 1320 l0 -400 80 0 80 0 0 400 0 400 -80 0 -80 0 0 -400z"/>
 <path d="M7183 1705 c-99 -30 -191 -109 -240 -205 l-28 -55 -3 -457 -3 -458 81 0 80 0 0 195 0 195 110 0 110 0 0 80 0 80 -110 0 -110 0 0 155 c0 161 4 183 48 242 26 35 112 83 149 83 22 0 23 3 23 80 l0 80 -32 -1 c-18 0 -52 -6 -75 -14z"/>
 <path d="M4782 807 c-30 -32 -28 -71 4 -96 63 -50 161 4 134 73 -19 50 -100 63 -138 23z"/>
 <path d="M5755 750 c-39 -16 -67 -57 -69 -99 -2 -101 115 -150 190 -80 83 78 -15 223 -121 179z"/>
 <path d="M6613 744 c-64 -32 -80 -125 -29 -173 64 -60 162 -37 185 45 25 92 -71 171 -156 128z"/>
 <path d="M3493 660 c-44 -19 -83 -69 -83 -105 0 -11 9 -35 20 -53 65 -106 293 -90 330 23 36 110 -133 196 -267 135z"/>
 <path d="M4604 586 c-37 -37 -43 -70 -20 -115 29 -56 122 -70 174 -26 78 66 26 175 -84 175 -28 0 -44 -8 -70 -34z"/>
 <path d="M4313 450 c-59 -35 -69 -89 -27 -139 83 -99 280 -23 233 90 -26 65 -138 91 -206 49z"/>
 <path d="M3895 431 c-50 -23 -66 -41 -67 -80 -3 -99 184 -139 270 -59 28 27 30 87 4 111 -51 47 -140 59 -207 28z"/>
 </g>

</svg>